<svg width="279.102" height="106.7" viewBox="0 0 279.102 106.7" xmlns="http://www.w3.org/2000/svg"><g id="svgGroup" stroke-linecap="round" fill-rule="evenodd" font-size="9pt" stroke="#000" stroke-width="0.25mm" fill="none" style="stroke:#000;stroke-width:0.25mm;fill:black"><path d="M 55.5 47.5 L 55.5 80.1 L 38.5 80.1 L 38.5 49.8 A 17.367 17.367 0 0 0 38.173 46.32 Q 37.748 44.246 36.773 42.646 A 9.477 9.477 0 0 0 35.6 41.1 Q 32.7 38 27.8 38 A 12.548 12.548 0 0 0 24.406 38.436 A 9.383 9.383 0 0 0 20 41.1 A 10.181 10.181 0 0 0 17.66 45.361 Q 17.214 46.938 17.123 48.821 A 20.378 20.378 0 0 0 17.1 49.8 L 17.1 80.1 L 0 80.1 L 0 24.3 L 17.1 24.3 L 17.1 31.7 A 17.723 17.723 0 0 1 23.028 26.412 A 21.223 21.223 0 0 1 24.1 25.85 Q 28.5 23.7 34 23.7 A 24.435 24.435 0 0 1 41.045 24.667 A 18.867 18.867 0 0 1 49.65 30.05 Q 55.159 36.031 55.48 46.224 A 40.584 40.584 0 0 1 55.5 47.5 Z M 190.8 47.5 L 190.8 80.1 L 173.8 80.1 L 173.8 49.8 A 17.367 17.367 0 0 0 173.473 46.32 Q 173.048 44.246 172.073 42.646 A 9.477 9.477 0 0 0 170.9 41.1 Q 168 38 163.1 38 A 12.548 12.548 0 0 0 159.706 38.436 A 9.383 9.383 0 0 0 155.3 41.1 A 10.181 10.181 0 0 0 152.96 45.361 Q 152.514 46.938 152.423 48.821 A 20.378 20.378 0 0 0 152.4 49.8 L 152.4 80.1 L 135.3 80.1 L 135.3 24.3 L 152.4 24.3 L 152.4 31.7 A 17.723 17.723 0 0 1 158.328 26.412 A 21.223 21.223 0 0 1 159.4 25.85 Q 163.8 23.7 169.3 23.7 A 24.435 24.435 0 0 1 176.345 24.667 A 18.867 18.867 0 0 1 184.95 30.05 Q 190.459 36.031 190.78 46.224 A 40.584 40.584 0 0 1 190.8 47.5 Z M 84.5 72.3 L 84.5 106.7 L 67.4 106.7 L 67.4 24.3 L 84.5 24.3 L 84.5 32.2 A 18.24 18.24 0 0 1 90.33 26.524 A 21.8 21.8 0 0 1 91.4 25.9 A 19.411 19.411 0 0 1 97.737 23.797 A 25.531 25.531 0 0 1 101.7 23.5 Q 108.6 23.5 114.2 27 A 23.589 23.589 0 0 1 121.92 34.948 A 29.087 29.087 0 0 1 123.05 37 A 30.319 30.319 0 0 1 125.843 45.946 A 39.914 39.914 0 0 1 126.3 52.1 Q 126.3 60.7 123.05 67.25 A 26.465 26.465 0 0 1 118.65 73.67 A 22.96 22.96 0 0 1 114.2 77.35 Q 108.6 80.9 101.7 80.9 Q 95.9 80.9 91.45 78.5 A 20.336 20.336 0 0 1 87.061 75.358 A 17.411 17.411 0 0 1 84.5 72.3 Z M 230.9 6.1 L 248 6.1 L 248 80.1 L 230.9 80.1 L 230.9 6.1 Z M 260.4 24.3 L 277.5 24.3 L 277.5 80.1 L 260.4 80.1 L 260.4 24.3 Z M 106.17 42.99 A 11.468 11.468 0 0 0 105.35 42.05 A 11.684 11.684 0 0 0 96.923 38.404 A 14.6 14.6 0 0 0 96.6 38.4 A 11.503 11.503 0 0 0 88.173 41.873 A 14.085 14.085 0 0 0 87.95 42.1 A 12.325 12.325 0 0 0 84.869 47.907 Q 84.415 49.814 84.4 52.056 A 22.907 22.907 0 0 0 84.4 52.2 A 18.615 18.615 0 0 0 84.849 56.409 Q 85.662 59.916 87.95 62.3 A 11.509 11.509 0 0 0 96.283 65.997 A 13.864 13.864 0 0 0 96.6 66 A 11.58 11.58 0 0 0 105.074 62.481 A 14.474 14.474 0 0 0 105.3 62.25 Q 108.9 58.5 108.9 52.1 Q 108.9 46.488 106.17 42.99 Z M 207.324 80.465 A 12.473 12.473 0 0 0 210.7 80.9 A 13.284 13.284 0 0 0 212.3 80.807 A 9.802 9.802 0 0 0 217.95 78.25 A 10.376 10.376 0 0 0 218.211 77.999 A 8.558 8.558 0 0 0 220.8 71.7 A 11.04 11.04 0 0 0 220.796 71.421 A 8.822 8.822 0 0 0 217.95 65 A 9.485 9.485 0 0 0 214.137 62.781 A 11.765 11.765 0 0 0 210.7 62.3 A 13.372 13.372 0 0 0 208.81 62.43 A 9.723 9.723 0 0 0 203.35 65 A 9.079 9.079 0 0 0 201.328 67.766 A 9.207 9.207 0 0 0 200.5 71.7 Q 200.5 75.6 203.35 78.25 A 9.52 9.52 0 0 0 207.324 80.465 Z M 265.624 18.065 A 12.473 12.473 0 0 0 269 18.5 A 13.284 13.284 0 0 0 270.6 18.407 A 9.802 9.802 0 0 0 276.25 15.85 A 10.376 10.376 0 0 0 276.511 15.599 A 8.558 8.558 0 0 0 279.1 9.3 Q 279.1 5.3 276.25 2.65 A 9.527 9.527 0 0 0 272.437 0.472 A 11.972 11.972 0 0 0 269 0 A 13.502 13.502 0 0 0 266.965 0.148 A 9.766 9.766 0 0 0 261.65 2.65 A 8.803 8.803 0 0 0 259.535 5.586 A 9.183 9.183 0 0 0 258.8 9.3 Q 258.8 13.2 261.65 15.85 A 9.52 9.52 0 0 0 265.624 18.065 Z" vector-effect="non-scaling-stroke"/></g></svg>